<svg version="1.2" xmlns="http://www.w3.org/2000/svg" viewBox="0 0 800 800" width="800" height="800">
	<title>logo</title>
	<style>
		.s0 { fill: #ffffff } 
		.s1 { fill: #000000 } 
	</style>
	<path id="Shape 1" fill-rule="evenodd" class="s0" d="m800 0v800h-800v-800z"/>
	<path class="s1" d="m696 239.9q0-0.1 0-0.2-0.1-0.4-0.1-0.7 0-0.3-0.1-0.7-0.1-0.3-0.2-0.6-0.1-0.3-0.2-0.6c-0.1-0.1 0-0.2-0.1-0.3 0-0.1-0.1-0.2-0.1-0.2q-0.2-0.3-0.3-0.6-0.2-0.3-0.4-0.6-0.2-0.3-0.4-0.5-0.2-0.3-0.5-0.5-0.2-0.3-0.4-0.4-0.1-0.1-0.2-0.2-0.1-0.1-0.2-0.2-0.1 0-0.2-0.1-0.1-0.1-0.2-0.2l-288-192q-0.9-0.6-2.1-1-1.1-0.3-2.3-0.3-1.2 0-2.3 0.3-1.2 0.4-2.1 1l-288 192q-0.1 0.1-0.2 0.2-0.1 0.1-0.2 0.1-0.1 0.1-0.2 0.2-0.1 0.1-0.2 0.2-0.2 0.1-0.4 0.4-0.3 0.2-0.5 0.5-0.2 0.2-0.4 0.5-0.2 0.3-0.4 0.6-0.1 0.3-0.3 0.6c0 0-0.1 0.1-0.1 0.2-0.1 0.1 0 0.2-0.1 0.3q-0.1 0.3-0.2 0.6-0.1 0.3-0.2 0.6-0.1 0.4-0.1 0.7 0 0.3-0.1 0.7 0 0.1 0 0.2v0.1 320c0 0.2 0 0.3 0 0.4q0.1 0.2 0.1 0.4 0 0.2 0 0.4 0 0.2 0.1 0.4 0 0.2 0.1 0.4c0 0.2 0.1 0.4 0.2 0.6q0.1 0.2 0.1 0.4 0.1 0.1 0.1 0.3 0.1 0.1 0.2 0.3 0.1 0.2 0.1 0.3l0.1 0.1c0.1 0.2 0.3 0.4 0.4 0.6q0.1 0.1 0.2 0.2 0.1 0.1 0.2 0.3 0 0.1 0.1 0.2 0.1 0.1 0.3 0.2 0 0.1 0.1 0.2 0.1 0 0.2 0.1 0 0.1 0.1 0.2 0.1 0 0.2 0.1 0.1 0.1 0.2 0.1 0 0.1 0.1 0.2 0.1 0.1 0.2 0.1 0.1 0.1 0.2 0.2l288 192q0.1 0 0.2 0.1 0.1 0 0.2 0.1 0.1 0 0.2 0.1 0.1 0 0.2 0.1 0.1 0 0.2 0.1 0.1 0 0.2 0.1 0.1 0 0.2 0.1 0.1 0 0.2 0 0.7 0.3 1.4 0.4 0.7 0.1 1.4 0.1 0.7 0 1.4-0.1 0.7-0.1 1.4-0.4 0.1 0 0.2 0 0.1-0.1 0.2-0.1 0.1-0.1 0.2-0.1 0.1-0.1 0.2-0.1 0.1-0.1 0.2-0.1 0.1-0.1 0.2-0.1 0.1-0.1 0.2-0.1 0.1-0.1 0.2-0.1l288-192q0.2-0.2 0.4-0.3 0.1-0.2 0.3-0.3 0.2-0.2 0.3-0.3 0.2-0.1 0.4-0.3 0.1-0.1 0.2-0.2 0.1-0.1 0.2-0.3 0-0.1 0.1-0.2 0.1-0.1 0.2-0.2c0.1-0.2 0.3-0.4 0.4-0.6l0.1-0.1q0-0.2 0.1-0.3 0.1-0.2 0.2-0.3 0-0.2 0.1-0.3 0-0.2 0.1-0.3c0.1-0.2 0.2-0.5 0.2-0.7q0.1-0.1 0.1-0.3 0-0.1 0-0.3 0.1-0.1 0.1-0.3 0-0.1 0-0.3 0-0.1 0-0.2 0-0.1 0.1-0.2 0-0.1 0-0.2 0-0.1 0-0.2v-320zm-24.5-1.3l-125.1 55.6-27.8-49.9q0.3-0.5 0.6-1 0.2-0.5 0.4-1.1 0.2-0.5 0.3-1.1 0.1-0.5 0.1-1.1 0-1.6-0.6-3.1-0.6-1.4-1.7-2.6-1.2-1.1-2.6-1.7-1.5-0.6-3.1-0.6h-0.2l-88.7-159zm-270.2-171.9l92.4 165.8q-1.2 0.3-2.2 1.1-1.1 0.7-1.9 1.7-0.7 1-1.1 2.2-0.4 1.2-0.4 2.5 0 1.6 0.6 3.1 0.6 1.4 1.7 2.6 1.1 1.1 2.6 1.7 1.5 0.6 3.1 0.6h6.3l26.8 48h-259.3l27.5-48h6.7q1.5 0 3-0.6 1.5-0.6 2.6-1.7 1.1-1.2 1.7-2.6 0.6-1.5 0.7-3.1-0.1-1.3-0.5-2.5-0.4-1.2-1.2-2.2-0.8-1-1.8-1.8-1.1-0.7-2.3-1zm-20.7 3.8l-92.5 161.5h-0.1q-1.6 0-3 0.6-1.5 0.6-2.6 1.7-1.1 1.2-1.8 2.6-0.6 1.5-0.6 3.1 0 0.5 0.1 1 0.1 0.5 0.3 1 0.1 0.5 0.3 1 0.2 0.5 0.5 0.9l-28.5 49.8-124.1-55.1zm-260.6 181.7l124.7 55.5-43.6 77.5q-0.7-0.1-1.3-0.1-0.7 0-1.4 0.1-0.6 0.1-1.2 0.3-0.7 0.2-1.2 0.6-1.4 0.7-2.4 2-1 1.3-1.5 2.8-0.4 1.6-0.2 3.2 0.2 1.6 1 3l0.7 1.4-73.6 130.9zm83.3 161.6c1.5 1.1 3.3 1.6 5.2 1.5 1.8-0.1 3.5-0.9 4.9-2.1 1.4-1.2 2.3-2.9 2.6-4.7 0.3-1.8-0.1-3.7-1-5.3l-2.9-5.1 43.9-77.9 44.4 78.9-1.1 1.8c-0.5 0.9-0.8 1.9-1 3-0.1 1 0 2.1 0.3 3.1 0.3 1 0.8 2 1.5 2.8 0.6 0.8 1.5 1.5 2.4 2q0.6 0.3 1.3 0.5 0.7 0.2 1.4 0.3 0.6 0.1 1.3 0.1 0.7 0 1.4-0.2l45 79.9q-0.3 0.4-0.4 0.8-0.2 0.4-0.3 0.9-0.1 0.4-0.2 0.9 0 0.4 0 0.9 0 1.4 0.5 2.8 0.6 1.4 1.6 2.5 1 1.1 2.3 1.7 1.3 0.7 2.8 0.8l27.1 48.2h-260.6zm188.6 323.1l-253.6-169.1h253.6zm8-193.3l-22.5-40q1.4-0.3 2.6-1 1.2-0.7 2.1-1.7 0.9-1.1 1.3-2.4 0.5-1.2 0.5-2.6 0-1.6-0.6-3.1-0.6-1.5-1.7-2.6-1.1-1.1-2.6-1.7-1.5-0.6-3.1-0.6h-7.3l-49.6-88.3 3.3-5.7c0.5-0.9 0.8-1.9 1-2.9 0.1-1.1 0-2.2-0.3-3.2-0.3-1-0.8-1.9-1.5-2.7-0.6-0.9-1.5-1.5-2.4-2q-1.1-0.6-2.2-0.8-1.2-0.3-2.4-0.2-1.2 0.1-2.4 0.5-1.1 0.4-2.1 1.1l-40.4-71.8h260.6l-40.4 71.8q-0.9-0.7-2.1-1.1-1.1-0.4-2.3-0.5-1.2-0.1-2.4 0.2-1.2 0.2-2.2 0.8c-1 0.5-1.8 1.2-2.5 2-0.6 0.8-1.1 1.7-1.4 2.7-0.3 1.1-0.4 2.1-0.3 3.2 0.1 1 0.5 2 1 2.9l3.3 5.7-49.7 88.3h-7.3q-1.6 0-3 0.6-1.5 0.6-2.6 1.7-1.2 1.1-1.8 2.6-0.6 1.5-0.6 3.1 0 1.4 0.5 2.6 0.5 1.3 1.4 2.4 0.9 1 2.1 1.7 1.2 0.7 2.5 1zm8 193.3v-169h253.6zm5.7-185.1l27.1-48.1q1.4-0.1 2.8-0.8 1.3-0.7 2.3-1.7 1-1.1 1.5-2.5 0.6-1.4 0.6-2.9 0-0.4-0.1-0.9 0-0.4-0.1-0.8-0.1-0.5-0.3-0.9-0.2-0.4-0.4-0.8l44.9-79.9q0.7 0.1 1.4 0.2 0.7 0 1.4-0.1 0.7-0.1 1.4-0.3 0.7-0.3 1.3-0.6c0.9-0.5 1.7-1.1 2.4-2 0.7-0.8 1.2-1.7 1.5-2.7 0.3-1 0.3-2.1 0.2-3.1-0.1-1.1-0.4-2.1-1-3l-1-1.8 43.8-77.8 44 77.5-2.4 4.4c-0.9 1.5-1.3 3.3-1 5.1 0.2 1.8 1 3.4 2.3 4.6 1.3 1.3 2.9 2.1 4.7 2.3 1.8 0.2 3.5-0.2 5.1-1.1l78.2 137.7zm266.3-22.3l-74.1-130.4 1.2-2.1c0.8-1.4 1.1-2.9 1-4.5-0.1-1.6-0.6-3.1-1.6-4.4-1-1.2-2.3-2.2-3.8-2.7-1.5-0.5-3.1-0.6-4.6-0.2l-43.9-77.2 125.8-55.9z"/>
	<path class="s1" d="m175.1 332.7c-1-1.9-2.8-3.3-4.8-3.8-2.1-0.6-4.3-0.4-6.2 0.7-1.9 1-3.3 2.8-3.9 4.9-0.5 2-0.3 4.3 0.8 6.1l7.9 14.2c1.1 1.8 2.9 3.2 4.9 3.8 2.1 0.6 4.3 0.3 6.2-0.7 1.9-1.1 3.3-2.8 3.8-4.9 0.6-2.1 0.4-4.3-0.7-6.2z"/>
	<path class="s1" d="m239 445.8c-1.1-1.9-2.8-3.3-4.9-3.9-2.1-0.6-4.3-0.3-6.2 0.8-1.9 1-3.3 2.8-3.8 4.8-0.6 2.1-0.4 4.3 0.7 6.2l8 14.2c1 1.8 2.8 3.2 4.9 3.8 2 0.6 4.3 0.3 6.1-0.7 1.9-1.1 3.3-2.8 3.9-4.9 0.6-2.1 0.3-4.3-0.7-6.2z"/>
	<path class="s1" d="m143.2 276.1c-1-1.8-2.8-3.2-4.9-3.8-2-0.6-4.2-0.3-6.1 0.7-1.9 1.1-3.3 2.8-3.9 4.9-0.6 2.1-0.3 4.3 0.7 6.2l8 14.1c1.1 1.9 2.8 3.3 4.9 3.9 2.1 0.5 4.3 0.3 6.2-0.8 1.9-1 3.2-2.8 3.8-4.9 0.6-2 0.4-4.2-0.7-6.1z"/>
	<path class="s1" d="m240 232h-16c-2.1 0-4.2 0.8-5.7 2.3-1.5 1.5-2.3 3.6-2.3 5.7 0 2.1 0.8 4.2 2.3 5.7 1.5 1.5 3.6 2.3 5.7 2.3h16c2.1 0 4.2-0.8 5.7-2.3 1.5-1.5 2.3-3.6 2.3-5.7 0-2.1-0.8-4.2-2.3-5.7-1.5-1.5-3.6-2.3-5.7-2.3z"/>
	<path class="s1" d="m176 232h-16c-2.1 0-4.2 0.8-5.7 2.3-1.5 1.5-2.3 3.6-2.3 5.7 0 2.1 0.8 4.2 2.3 5.7 1.5 1.5 3.6 2.3 5.7 2.3h16c2.1 0 4.2-0.8 5.7-2.3 1.5-1.5 2.3-3.6 2.3-5.7 0-2.1-0.8-4.2-2.3-5.7-1.5-1.5-3.6-2.3-5.7-2.3z"/>
	<path class="s1" d="m352 248h16c2.1 0 4.2-0.8 5.7-2.3 1.5-1.5 2.3-3.6 2.3-5.7 0-2.1-0.8-4.2-2.3-5.7-1.5-1.5-3.6-2.3-5.7-2.3h-16c-2.1 0-4.2 0.8-5.7 2.3-1.5 1.5-2.3 3.6-2.3 5.7 0 2.1 0.8 4.2 2.3 5.7 1.5 1.5 3.6 2.3 5.7 2.3z"/>
	<path class="s1" d="m432 248h16c2.1 0 4.2-0.8 5.7-2.3 1.5-1.5 2.3-3.6 2.3-5.7 0-2.1-0.8-4.2-2.3-5.7-1.5-1.5-3.6-2.3-5.7-2.3h-16c-2.1 0-4.2 0.8-5.7 2.3-1.5 1.5-2.3 3.6-2.3 5.7 0 2.1 0.8 4.2 2.3 5.7 1.5 1.5 3.6 2.3 5.7 2.3z"/>
	<path class="s1" d="m560 248h16c2.1 0 4.2-0.8 5.7-2.3 1.5-1.5 2.3-3.6 2.3-5.7 0-2.1-0.8-4.2-2.3-5.7-1.5-1.5-3.6-2.3-5.7-2.3h-16c-2.1 0-4.2 0.8-5.7 2.3-1.5 1.5-2.3 3.6-2.3 5.7 0 2.1 0.8 4.2 2.3 5.7 1.5 1.5 3.6 2.3 5.7 2.3z"/>
	<path class="s1" d="m624 248h16c2.1 0 4.2-0.8 5.7-2.3 1.5-1.5 2.3-3.6 2.3-5.7 0-2.1-0.8-4.2-2.3-5.7-1.5-1.5-3.6-2.3-5.7-2.3h-16c-2.1 0-4.2 0.8-5.7 2.3-1.5 1.5-2.3 3.6-2.3 5.7 0 2.1 0.8 4.2 2.3 5.7 1.5 1.5 3.6 2.3 5.7 2.3z"/>
	<path class="s1" d="m558.6 502.5c0-0.1 0-0.1 0.1-0.2-0.1 0.2-0.2 0.3-0.3 0.5 0.1-0.1 0.2-0.2 0.2-0.3z"/>
	<path class="s1" d="m590.1 504.8l-11.3-5.2q-1.4-0.6-2.9-0.7-1.6 0-3 0.6-1.5 0.6-2.6 1.7-1.1 1-1.6 2.5-0.7 1.4-0.7 3 0 1.6 0.5 3 0.5 1.5 1.6 2.7 1.1 1.2 2.5 1.8l11.3 5.3q1.4 0.6 3 0.6 1.5 0.1 2.9-0.5 1.5-0.6 2.6-1.7 1.1-1.1 1.7-2.5 0.6-1.4 0.6-3 0.1-1.6-0.5-3.1-0.5-1.4-1.6-2.6-1-1.2-2.5-1.9z"/>
	<path class="s1" d="m617.9 535.2l11.3 5.2q1.4 0.6 2.9 0.7 1.6 0 3-0.6 1.5-0.6 2.6-1.7 1.1-1 1.6-2.5 0.7-1.4 0.7-3 0-1.6-0.5-3-0.5-1.5-1.6-2.7-1.1-1.2-2.5-1.8l-11.3-5.3q-1.4-0.6-3-0.6-1.5-0.1-2.9 0.5-1.5 0.6-2.6 1.7-1.1 1.1-1.7 2.5-0.6 1.4-0.6 3-0.1 1.6 0.5 3.1 0.5 1.4 1.6 2.6 1 1.2 2.5 1.9z"/>
	<path class="s1" d="m504 488h-16c-2.1 0-4.2 0.8-5.7 2.3-1.5 1.5-2.3 3.6-2.3 5.7 0 2.1 0.8 4.2 2.3 5.7 1.5 1.5 3.6 2.3 5.7 2.3h16c2.1 0 4.2-0.8 5.7-2.3 1.5-1.5 2.3-3.6 2.3-5.7 0-2.1-0.8-4.2-2.3-5.7-1.5-1.5-3.6-2.3-5.7-2.3z"/>
	<path class="s1" d="m312 488h-16c-2.1 0-4.2 0.8-5.7 2.3-1.5 1.5-2.3 3.6-2.3 5.7 0 2.1 0.8 4.2 2.3 5.7 1.5 1.5 3.6 2.3 5.7 2.3h16c2.1 0 4.2-0.8 5.7-2.3 1.5-1.5 2.3-3.6 2.3-5.7 0-2.1-0.8-4.2-2.3-5.7-1.5-1.5-3.6-2.3-5.7-2.3z"/>
	<path class="s1" d="m175.9 520.5l-11.3 5.3q-1.4 0.6-2.5 1.8-1.1 1.2-1.6 2.7-0.5 1.4-0.5 3 0 1.6 0.7 3 0.5 1.5 1.6 2.5 1.1 1.1 2.6 1.7 1.4 0.6 3 0.6 1.5-0.1 2.9-0.7l11.3-5.2q1.5-0.7 2.5-1.9 1.1-1.2 1.6-2.6 0.6-1.5 0.5-3.1 0-1.6-0.6-3-0.6-1.4-1.7-2.5-1.1-1.1-2.6-1.7-1.4-0.6-2.9-0.5-1.6 0-3 0.6z"/>
	<path class="s1" d="m221.2 499.6l-11.3 5.2q-1.5 0.7-2.5 1.9-1.1 1.2-1.6 2.6-0.6 1.5-0.5 3.1 0 1.6 0.6 3 0.6 1.4 1.7 2.5 1.1 1.1 2.6 1.7 1.4 0.6 2.9 0.5 1.6 0 3-0.6l11.3-5.3q1.4-0.6 2.5-1.8 1.1-1.2 1.6-2.7 0.5-1.4 0.5-3 0-1.6-0.7-3-0.5-1.5-1.6-2.5-1.1-1.1-2.6-1.7-1.4-0.6-3-0.6-1.5 0.1-2.9 0.7z"/>
	<path class="s1" d="m371.1 293.7q1.5 0.8 3.1 1 1.6 0.1 3.2-0.3 1.5-0.4 2.8-1.4 1.3-1 2.2-2.4l8.5-14.7c0.6-1 0.9-2 1-3 0.2-1.1 0.1-2.1-0.2-3.1-0.3-1.1-0.8-2-1.5-2.8-0.7-0.8-1.5-1.5-2.4-2q-1.5-0.8-3.1-1-1.6-0.1-3.2 0.3-1.5 0.4-2.8 1.4-1.3 1-2.2 2.4l-8.5 14.8c-0.6 0.9-0.9 1.9-1 2.9-0.2 1.1-0.1 2.1 0.2 3.1 0.3 1.1 0.8 2 1.5 2.8 0.7 0.8 1.5 1.5 2.4 2z"/>
	<path class="s1" d="m268.2 471q1.5 0.8 3.1 0.9 1.6 0.2 3.2-0.2 1.5-0.4 2.8-1.4 1.3-1 2.2-2.4l8.5-14.8c0.6-0.9 0.9-1.9 1-2.9 0.2-1.1 0.1-2.1-0.2-3.1-0.3-1.1-0.8-2-1.5-2.8-0.7-0.8-1.5-1.5-2.4-2q-1.5-0.8-3.1-1-1.6-0.1-3.2 0.3-1.5 0.4-2.8 1.4-1.3 1-2.2 2.4l-8.5 14.7c-0.6 1-0.9 2-1 3-0.2 1.1-0.1 2.1 0.2 3.1 0.3 1.1 0.8 2 1.5 2.8 0.7 0.8 1.5 1.5 2.4 2z"/>
	<path class="s1" d="m353.5 324.1q-1.5-0.8-3.1-1-1.6-0.1-3.2 0.3-1.5 0.4-2.8 1.4-1.3 1-2.2 2.4l-8.5 14.7c-0.6 1-0.9 2-1 3-0.2 1.1-0.1 2.1 0.2 3.1 0.3 1.1 0.8 2 1.5 2.8 0.7 0.8 1.5 1.5 2.4 2q1.5 0.8 3.1 1 1.6 0.1 3.2-0.3 1.5-0.4 2.8-1.4 1.3-1 2.2-2.4l8.5-14.7c0.6-1 0.9-2 1-3 0.2-1.1 0.1-2.1-0.2-3.1-0.3-1.1-0.8-2-1.5-2.8-0.7-0.8-1.5-1.5-2.4-2z"/>
	<path class="s1" d="m526.4 445.4q-0.9-1.4-2.2-2.4-1.3-1-2.8-1.4-1.6-0.4-3.2-0.3-1.6 0.2-3.1 1c-0.9 0.5-1.7 1.2-2.4 2-0.7 0.8-1.1 1.8-1.4 2.8-0.3 1-0.4 2-0.3 3.1 0.1 1 0.5 2 1 3l8.6 14.7q0.8 1.4 2.1 2.4 1.3 1 2.9 1.4 1.5 0.4 3.1 0.2 1.7-0.1 3.1-0.9c0.9-0.5 1.8-1.2 2.4-2 0.7-0.8 1.2-1.8 1.5-2.8 0.3-1 0.4-2 0.2-3.1-0.1-1-0.4-2-1-3z"/>
	<path class="s1" d="m417.6 290.6q0.9 1.4 2.2 2.4 1.3 1 2.8 1.4 1.6 0.4 3.2 0.3 1.6-0.2 3.1-1c0.9-0.5 1.7-1.2 2.4-2 0.7-0.8 1.1-1.8 1.4-2.8 0.3-1 0.4-2 0.3-3.1-0.1-1-0.5-2-1-3l-8.6-14.7q-0.8-1.4-2.1-2.4-1.3-1-2.9-1.4-1.5-0.4-3.1-0.2-1.7 0.1-3.1 0.9c-0.9 0.5-1.8 1.2-2.4 2-0.7 0.8-1.2 1.8-1.5 2.8-0.3 1-0.4 2-0.2 3.1 0.1 1 0.4 2 1 3z"/>
	<path class="s1" d="m451.9 349.7q0.9 1.4 2.2 2.4 1.3 1 2.8 1.4 1.6 0.4 3.2 0.3 1.6-0.2 3.1-1c0.9-0.5 1.7-1.2 2.4-2 0.7-0.8 1.2-1.8 1.5-2.8 0.3-1 0.3-2 0.2-3.1-0.1-1-0.5-2-1-3l-8.6-14.7q-0.8-1.4-2.1-2.4-1.3-1-2.9-1.4-1.5-0.4-3.1-0.2-1.6 0.1-3.1 0.9c-0.9 0.5-1.7 1.2-2.4 2-0.7 0.8-1.2 1.8-1.5 2.8-0.3 1-0.3 2-0.2 3.1 0.1 1 0.4 2 1 3z"/>
	<path class="s1" d="m400 248c3.8 0 7.1-2.7 7.8-6.4 0.8-3.8-1.2-7.5-4.7-9-3.6-1.5-7.6-0.2-9.8 3-2.1 3.1-1.7 7.4 1 10.1q0.6 0.5 1.3 0.9 0.6 0.5 1.3 0.8 0.8 0.3 1.5 0.4 0.8 0.2 1.6 0.2z"/>
	<path class="s1" d="m256 488c-3.8 0-7.1 2.7-7.8 6.4-0.8 3.8 1.2 7.5 4.7 9 3.6 1.5 7.6 0.2 9.8-3 2.1-3.1 1.7-7.4-1-10.1q-0.6-0.5-1.3-0.9-0.6-0.5-1.3-0.8-0.8-0.3-1.5-0.4-0.8-0.2-1.6-0.2z"/>
	<path class="s1" d="m293.9 581.2l8.3 14.1q0.8 1.4 2.2 2.4 1.3 1 2.9 1.4 1.6 0.4 3.2 0.2 1.6-0.2 3.1-1c0.9-0.5 1.8-1.1 2.5-2 0.6-0.8 1.1-1.7 1.4-2.8 0.3-1 0.4-2.1 0.3-3.1-0.1-1.1-0.5-2.1-1-3l-8.3-14.1q-0.9-1.4-2.2-2.4-1.3-1-2.9-1.4-1.6-0.4-3.2-0.2-1.7 0.2-3.1 0.9c-1 0.5-1.8 1.2-2.5 2-0.7 0.9-1.2 1.8-1.5 2.8-0.3 1.1-0.3 2.1-0.2 3.2 0.1 1.1 0.5 2.1 1 3z"/>
	<path class="s1" d="m368.3 707.9q0.9 1.4 2.2 2.4 1.3 1 2.9 1.4 1.6 0.4 3.2 0.2 1.7-0.2 3.1-0.9c1-0.5 1.8-1.2 2.5-2 0.7-0.9 1.2-1.8 1.5-2.8 0.3-1.1 0.4-2.1 0.2-3.2-0.1-1-0.4-2.1-1-3l-8.2-14.1q-0.9-1.4-2.2-2.4-1.4-1-2.9-1.4-1.6-0.4-3.3-0.2-1.6 0.2-3.1 1c-0.9 0.5-1.8 1.1-2.4 2-0.7 0.8-1.2 1.7-1.5 2.8-0.3 1-0.4 2.1-0.3 3.1 0.2 1.1 0.5 2.1 1 3z"/>
	<path class="s1" d="m335.2 651.6q0.9 1.4 2.2 2.4 1.3 1 2.9 1.4 1.6 0.4 3.3 0.2 1.6-0.2 3.1-1c0.9-0.4 1.7-1.1 2.4-1.9 0.7-0.9 1.2-1.8 1.5-2.8 0.3-1.1 0.4-2.1 0.3-3.2-0.2-1.1-0.5-2.1-1.1-3l-8.2-14.1q-0.9-1.4-2.2-2.4-1.3-1-2.9-1.4-1.6-0.4-3.3-0.2-1.6 0.2-3 1c-1 0.4-1.8 1.1-2.5 1.9-0.7 0.9-1.2 1.8-1.5 2.9-0.3 1-0.4 2.1-0.2 3.1 0.1 1.1 0.4 2.1 1 3z"/>
	<path class="s1" d="m279.6 524.1q-0.2-0.3-0.3-0.5-0.2-0.2-0.4-0.4-0.2-0.2-0.4-0.4-0.1-0.2-0.3-0.3-1-1-2.2-1.6-1.3-0.6-2.6-0.8-1.3-0.2-2.7 0-1.3 0.3-2.5 0.9-1.4 0.7-2.3 1.9-1 1.1-1.5 2.5-0.5 1.5-0.4 3 0.1 1.5 0.7 2.8 0.1 0.1 0.1 0.2 0 0.1 0.1 0.2 0 0.1 0 0.2 0 0.1 0.1 0.2l4.1 7q0.9 1.4 2.2 2.4 1.3 0.9 2.9 1.4 1.6 0.4 3.2 0.2 1.7-0.2 3.1-1c1-0.5 1.8-1.1 2.5-2 0.7-0.8 1.2-1.7 1.5-2.8 0.3-1 0.3-2.1 0.2-3.1-0.1-1.1-0.5-2.1-1-3z"/>
	<path class="s1" d="m620 357.9q1.4 0.8 3 0.9 1.6 0.2 3.2-0.2 1.5-0.4 2.8-1.4 1.3-1 2.1-2.4l7.9-14.2c1.1-1.8 1.3-4.1 0.8-6.1-0.6-2.1-2-3.9-3.9-4.9-1.9-1.1-4.1-1.3-6.2-0.7-2 0.5-3.8 1.9-4.8 3.8l-8 14.1q-0.8 1.4-1 3-0.2 1.6 0.2 3.2 0.5 1.5 1.5 2.8 1 1.3 2.4 2.1z"/>
	<path class="s1" d="m572.1 442.7q-1.4-0.8-3-1-1.6-0.2-3.2 0.2-1.5 0.5-2.8 1.5-1.3 1-2.1 2.4l-8 14.1c-1 1.9-1.3 4.1-0.7 6.2 0.6 2.1 2 3.8 3.9 4.9 1.8 1 4.1 1.3 6.1 0.7 2.1-0.6 3.9-2 4.9-3.8l8-14.2q0.8-1.4 1-3 0.2-1.6-0.2-3.1-0.5-1.6-1.5-2.9-1-1.2-2.4-2z"/>
	<path class="s1" d="m651.9 301.3q1.4 0.8 3 1 1.6 0.2 3.2-0.2 1.5-0.5 2.8-1.5 1.3-1 2.1-2.4l8-14.1c1-1.9 1.3-4.1 0.7-6.2-0.6-2-2-3.8-3.9-4.9-1.9-1-4.1-1.3-6.1-0.7-2.1 0.6-3.9 2-4.9 3.8l-8 14.2q-0.8 1.4-1 3-0.2 1.6 0.2 3.1 0.5 1.6 1.5 2.9 1 1.2 2.4 2z"/>
	<path class="s1" d="m420.3 711q1.4 0.7 3 0.9 1.7 0.2 3.3-0.2 1.6-0.4 2.9-1.4 1.3-1 2.2-2.4l8.2-14.1c0.6-0.9 0.9-1.9 1-3 0.2-1 0.1-2.1-0.2-3.1-0.3-1.1-0.8-2-1.5-2.8-0.7-0.9-1.5-1.5-2.5-2q-1.4-0.8-3-1-1.7-0.2-3.3 0.2-1.6 0.5-2.9 1.4-1.3 1-2.2 2.4l-8.2 14.1c-0.6 0.9-0.9 2-1 3-0.2 1.1-0.1 2.1 0.2 3.2 0.3 1 0.8 1.9 1.5 2.8 0.7 0.8 1.5 1.5 2.5 2z"/>
	<path class="s1" d="m453.3 654.7q1.5 0.7 3.1 0.9 1.6 0.2 3.2-0.2 1.6-0.4 2.9-1.4 1.4-1 2.2-2.4l8.3-14.1c0.5-0.9 0.9-1.9 1-3 0.1-1 0-2.1-0.3-3.1-0.3-1.1-0.8-2-1.4-2.8-0.7-0.9-1.6-1.5-2.5-2q-1.5-0.8-3.1-1-1.6-0.2-3.2 0.2-1.6 0.4-2.9 1.4-1.4 1-2.2 2.4l-8.3 14.1c-0.5 0.9-0.9 1.9-1 3-0.1 1.1 0 2.1 0.3 3.2 0.3 1 0.8 1.9 1.4 2.8 0.7 0.8 1.6 1.5 2.5 2z"/>
	<path class="s1" d="m486.4 598.4q1.4 0.7 3 0.9 1.7 0.2 3.3-0.2 1.6-0.4 2.9-1.4 1.3-1 2.2-2.4l8.2-14.1c0.6-0.9 0.9-1.9 1-3 0.2-1 0.1-2.1-0.2-3.1-0.3-1.1-0.8-2-1.5-2.8-0.7-0.9-1.5-1.5-2.5-2q-1.4-0.8-3-1-1.7-0.2-3.3 0.2-1.6 0.4-2.9 1.4-1.3 1-2.2 2.4l-8.2 14.1c-0.6 0.9-0.9 1.9-1 3-0.2 1.1-0.1 2.1 0.2 3.2 0.3 1 0.8 1.9 1.5 2.8 0.7 0.8 1.5 1.5 2.5 2z"/>
	<path class="s1" d="m531.7 521q-1.4-0.7-3.1-0.9-1.6-0.2-3.2 0.2-1.6 0.4-2.9 1.4-1.3 1-2.2 2.4l-1 1.7-3.1 5.3c-0.5 0.9-0.9 1.9-1 3-0.1 1.1 0 2.1 0.3 3.2 0.3 1 0.8 1.9 1.4 2.8 0.7 0.8 1.6 1.5 2.5 2q1.5 0.7 3.1 0.9 1.6 0.2 3.2-0.2 1.6-0.4 2.9-1.4 1.4-1 2.2-2.4l3.2-5.4 0.9-1.6c0.6-0.9 0.9-2 1-3 0.2-1.1 0.1-2.1-0.2-3.2-0.3-1-0.8-1.9-1.5-2.8-0.7-0.8-1.5-1.5-2.5-2z"/>
	<path class="s1" d="m544 488c-3.8 0-7.1 2.7-7.8 6.4-0.8 3.8 1.2 7.5 4.7 9 3.6 1.5 7.6 0.2 9.8-3 2.1-3.1 1.7-7.4-1-10.1q-0.6-0.5-1.3-0.9-0.6-0.5-1.3-0.8-0.8-0.3-1.5-0.4-0.8-0.2-1.6-0.2z"/>
	<path class="s1" d="m400 152q1.6 0 3.1-0.6 1.4-0.6 2.6-1.7 1.1-1.2 1.7-2.6 0.6-1.5 0.6-3.1v-16c0-2.1-0.8-4.2-2.3-5.7-1.5-1.5-3.6-2.3-5.7-2.3-2.1 0-4.2 0.8-5.7 2.3-1.5 1.5-2.3 3.6-2.3 5.7v16q0 1.6 0.6 3.1 0.6 1.4 1.7 2.6 1.2 1.1 2.6 1.7 1.5 0.6 3.1 0.6z"/>
	<path class="s1" d="m400 216q1.3 0 2.6-0.5 1.2-0.4 2.3-1.2 1-0.9 1.7-2 0.7-1.1 1-2.4 0.1-0.2 0.2-0.5 0-0.2 0.1-0.4 0-0.3 0-0.5 0.1-0.3 0.1-0.5v-16c0-2.1-0.8-4.2-2.3-5.7-1.5-1.5-3.6-2.3-5.7-2.3-2.1 0-4.2 0.8-5.7 2.3-1.5 1.5-2.3 3.6-2.3 5.7v16q0 1.6 0.6 3.1 0.6 1.4 1.7 2.6 1.2 1.1 2.6 1.7 1.5 0.6 3.1 0.6z"/>
</svg>